{
  "accessors": [
    {
      "bufferView": 2,
      "componentType": 5126,
      "count": 65532,
      "max": [
        5.3131914138793945,
        -38.571475982666016,
        4.999405860900879
      ],
      "min": [
        -4.843073844909668,
        -46.707149505615234,
        -5.233558177947998
      ],
      "type": "VEC3"
    },
    {
      "bufferView": 2,
      "byteOffset": 786384,
      "componentType": 5126,
      "count": 65532,
      "max": [
        0.9999591708183289,
        1.0,
        0.9999662041664124
      ],
      "min": [
        -0.9999709129333496,
        -0.9999909400939941,
        -0.9998453855514526
      ],
      "type": "VEC3"
    },
    {
      "bufferView": 1,
      "componentType": 5126,
      "count": 65532,
      "max": [
        0.9998152256011963,
        0.9998778104782104
      ],
      "min": [
        0.0001220703125,
        0.00012202991638332605
      ],
      "type": "VEC2"
    },
    {
      "bufferView": 0,
      "componentType": 5125,
      "count": 273756,
      "type": "SCALAR"
    },
    {
      "bufferView": 2,
      "byteOffset": 1572768,
      "componentType": 5126,
      "count": 65532,
      "max": [
        4.958203315734863,
        -41.40467071533203,
        4.244882583618164
      ],
      "min": [
        -3.433241605758667,
        -44.764801025390625,
        -5.957371711730957
      ],
      "type": "VEC3"
    },
    {
      "bufferView": 2,
      "byteOffset": 2359152,
      "componentType": 5126,
      "count": 65532,
      "max": [
        0.9998354911804199,
        0.9996953010559082,
        0.9999744296073914
      ],
      "min": [
        -0.9999732971191406,
        -0.9999693632125854,
        -0.9999539256095886
      ],
      "type": "VEC3"
    },
    {
      "bufferView": 1,
      "byteOffset": 524256,
      "componentType": 5126,
      "count": 65532,
      "max": [
        0.9998719692230225,
        0.9974364042282104
      ],
      "min": [
        0.0001220703125,
        0.00013752712402492762
      ],
      "type": "VEC2"
    },
    {
      "bufferView": 0,
      "byteOffset": 1095024,
      "componentType": 5125,
      "count": 225420,
      "type": "SCALAR"
    },
    {
      "bufferView": 2,
      "byteOffset": 3145536,
      "componentType": 5126,
      "count": 65532,
      "max": [
        4.99996280670166,
        -41.71623229980469,
        5.166064739227295
      ],
      "min": [
        -4.741164207458496,
        -45.404781341552734,
        -4.948699951171875
      ],
      "type": "VEC3"
    },
    {
      "bufferView": 2,
      "byteOffset": 3931920,
      "componentType": 5126,
      "count": 65532,
      "max": [
        0.9999479651451111,
        0.9998798370361328,
        0.9999854564666748
      ],
      "min": [
        -0.9999862313270569,
        -0.9999825358390808,
        -0.999919056892395
      ],
      "type": "VEC3"
    },
    {
      "bufferView": 1,
      "byteOffset": 1048512,
      "componentType": 5126,
      "count": 65532,
      "max": [
        0.9998491406440735,
        0.9949949979782104
      ],
      "min": [
        0.0001220703125,
        0.0001369310775771737
      ],
      "type": "VEC2"
    },
    {
      "bufferView": 0,
      "byteOffset": 1996704,
      "componentType": 5125,
      "count": 226431,
      "type": "SCALAR"
    },
    {
      "bufferView": 2,
      "byteOffset": 4718304,
      "componentType": 5126,
      "count": 65532,
      "max": [
        5.067792892456055,
        -40.99620819091797,
        5.166064739227295
      ],
      "min": [
        -5.276036262512207,
        -45.28919982910156,
        -4.996047496795654
      ],
      "type": "VEC3"
    },
    {
      "bufferView": 2,
      "byteOffset": 5504688,
      "componentType": 5126,
      "count": 65532,
      "max": [
        0.9992911219596863,
        0.9998335242271423,
        0.9999586939811707
      ],
      "min": [
        -0.9999684691429138,
        -0.9999918937683105,
        -0.9999602437019348
      ],
      "type": "VEC3"
    },
    {
      "bufferView": 1,
      "byteOffset": 1572768,
      "componentType": 5126,
      "count": 65532,
      "max": [
        0.9998677968978882,
        0.9984129667282104
      ],
      "min": [
        0.0001220703125,
        0.00012208952102810144
      ],
      "type": "VEC2"
    },
    {
      "bufferView": 0,
      "byteOffset": 2902428,
      "componentType": 5125,
      "count": 217602,
      "type": "SCALAR"
    },
    {
      "bufferView": 2,
      "byteOffset": 6291072,
      "componentType": 5126,
      "count": 65532,
      "max": [
        4.811629295349121,
        -41.047916412353516,
        4.8875651359558105
      ],
      "min": [
        -5.014652252197266,
        -45.40938186645508,
        -4.517552852630615
      ],
      "type": "VEC3"
    },
    {
      "bufferView": 2,
      "byteOffset": 7077456,
      "componentType": 5126,
      "count": 65532,
      "max": [
        0.9998997449874878,
        0.9998008012771606,
        0.9999673962593079
      ],
      "min": [
        -0.999887228012085,
        -0.9999973773956299,
        -0.9999452829360962
      ],
      "type": "VEC3"
    },
    {
      "bufferView": 1,
      "byteOffset": 2097024,
      "componentType": 5126,
      "count": 65532,
      "max": [
        0.9998712539672852,
        0.9930418729782104
      ],
      "min": [
        0.0001220703125,
        0.00012328161392360926
      ],
      "type": "VEC2"
    },
    {
      "bufferView": 0,
      "byteOffset": 3772836,
      "componentType": 5125,
      "count": 219435,
      "type": "SCALAR"
    },
    {
      "bufferView": 2,
      "byteOffset": 7863840,
      "componentType": 5126,
      "count": 5371,
      "max": [
        4.839211463928223,
        -41.9405632019043,
        -1.6759752035140991
      ],
      "min": [
        -0.5072798728942871,
        -44.71181869506836,
        -4.485463619232178
      ],
      "type": "VEC3"
    },
    {
      "bufferView": 2,
      "byteOffset": 7928292,
      "componentType": 5126,
      "count": 5371,
      "max": [
        0.9998551607131958,
        0.9979167580604553,
        0.999239981174469
      ],
      "min": [
        -0.9986131191253662,
        -0.9989849328994751,
        -0.999097466468811
      ],
      "type": "VEC3"
    },
    {
      "bufferView": 1,
      "byteOffset": 2621280,
      "componentType": 5126,
      "count": 5371,
      "max": [
        0.9996540546417236,
        0.9827879667282104
      ],
      "min": [
        0.0001220703125,
        0.0015120102325454354
      ],
      "type": "VEC2"
    },
    {
      "bufferView": 0,
      "byteOffset": 4650576,
      "componentType": 5125,
      "count": 14808,
      "type": "SCALAR"
    }
  ],
  "asset": {
    "extras": {
      "author": "matousekfoto (https://sketchfab.com/matousekfoto)",
      "license": "CC-BY-4.0 (http://creativecommons.org/licenses/by/4.0/)",
      "source": "https://sketchfab.com/3d-models/houseleek-plant-70679a304b324ca8941c214875acf6a9",
      "title": "Houseleek plant"
    },
    "generator": "Sketchfab-12.67.0",
    "version": "2.0"
  },
  "bufferViews": [
    {
      "buffer": 0,
      "byteLength": 4709808,
      "name": "floatBufferViews",
      "target": 34963
    },
    {
      "buffer": 0,
      "byteLength": 2664248,
      "byteOffset": 4709808,
      "byteStride": 8,
      "name": "floatBufferViews",
      "target": 34962
    },
    {
      "buffer": 0,
      "byteLength": 7992744,
      "byteOffset": 7374056,
      "byteStride": 12,
      "name": "floatBufferViews",
      "target": 34962
    }
  ],
  "buffers": [
    {
      "byteLength": 15366800,
      "uri": "scene.bin"
    }
  ],
  "extensionsUsed": [
    "KHR_materials_unlit"
  ],
  "images": [
    {
      "uri": "textures/plastic-houseleek_u1_v1_baseColor.jpeg"
    }
  ],
  "materials": [
    {
      "doubleSided": true,
      "extensions": {
        "KHR_materials_unlit": {}
      },
      "name": "plastic-houseleek_u1_v1",
      "pbrMetallicRoughness": {
        "baseColorTexture": {
          "index": 0
        },
        "metallicFactor": 0.0
      }
    }
  ],
  "meshes": [
    {
      "name": "Object_0",
      "primitives": [
        {
          "attributes": {
            "NORMAL": 1,
            "POSITION": 0,
            "TEXCOORD_0": 2
          },
          "indices": 3,
          "material": 0,
          "mode": 4
        }
      ]
    },
    {
      "name": "Object_1",
      "primitives": [
        {
          "attributes": {
            "NORMAL": 5,
            "POSITION": 4,
            "TEXCOORD_0": 6
          },
          "indices": 7,
          "material": 0,
          "mode": 4
        }
      ]
    },
    {
      "name": "Object_2",
      "primitives": [
        {
          "attributes": {
            "NORMAL": 9,
            "POSITION": 8,
            "TEXCOORD_0": 10
          },
          "indices": 11,
          "material": 0,
          "mode": 4
        }
      ]
    },
    {
      "name": "Object_3",
      "primitives": [
        {
          "attributes": {
            "NORMAL": 13,
            "POSITION": 12,
            "TEXCOORD_0": 14
          },
          "indices": 15,
          "material": 0,
          "mode": 4
        }
      ]
    },
    {
      "name": "Object_4",
      "primitives": [
        {
          "attributes": {
            "NORMAL": 17,
            "POSITION": 16,
            "TEXCOORD_0": 18
          },
          "indices": 19,
          "material": 0,
          "mode": 4
        }
      ]
    },
    {
      "name": "Object_5",
      "primitives": [
        {
          "attributes": {
            "NORMAL": 21,
            "POSITION": 20,
            "TEXCOORD_0": 22
          },
          "indices": 23,
          "material": 0,
          "mode": 4
        }
      ]
    }
  ],
  "nodes": [
    {
      "children": [
        1
      ],
      "matrix": [
        0.03314270079135895,
        0.0,
        0.0,
        0.0,
        0.0,
        -0.033142588190201216,
        8.63364129591658e-05,
        0.0,
        0.0,
        -8.63364129591658e-05,
        -0.033142588190201216,
        0.0,
        0.0,
        -43.035900115966804,
        42.35477447509765,
        1.0
      ],
      "name": "Sketchfab_model"
    },
    {
      "children": [
        2,
        3,
        4,
        5,
        6,
        7
      ],
      "name": "plastic-houseleek.obj.cleaner.materialmerger.gles"
    },
    {
      "mesh": 0,
      "name": "Object_2"
    },
    {
      "mesh": 1,
      "name": "Object_3"
    },
    {
      "mesh": 2,
      "name": "Object_4"
    },
    {
      "mesh": 3,
      "name": "Object_5"
    },
    {
      "mesh": 4,
      "name": "Object_6"
    },
    {
      "mesh": 5,
      "name": "Object_7"
    }
  ],
  "samplers": [
    {
      "magFilter": 9729,
      "minFilter": 9987,
      "wrapS": 10497,
      "wrapT": 10497
    }
  ],
  "scene": 0,
  "scenes": [
    {
      "name": "Sketchfab_Scene",
      "nodes": [
        0
      ]
    }
  ],
  "textures": [
    {
      "sampler": 0,
      "source": 0
    }
  ]
}
