{
  "accessors": [
    {
      "bufferView": 2,
      "componentType": 5126,
      "count": 65534,
      "max": [
        3.889145612716675,
        2.314614772796631,
        3.3515307903289795
      ],
      "min": [
        -3.6026718616485596,
        -3.1597390174865723,
        -3.108102798461914
      ],
      "type": "VEC3"
    },
    {
      "bufferView": 2,
      "byteOffset": 786408,
      "componentType": 5126,
      "count": 65534,
      "max": [
        0.9999700784683228,
        0.999995231628418,
        0.9999922513961792
      ],
      "min": [
        -0.9999377727508545,
        -0.9999915361404419,
        -0.9999662637710571
      ],
      "type": "VEC3"
    },
    {
      "bufferView": 1,
      "componentType": 5126,
      "count": 65534,
      "max": [
        0.9999756217002869,
        0.9999919533729553
      ],
      "min": [
        8.978170080808923e-05,
        6.599724292755127e-05
      ],
      "type": "VEC2"
    },
    {
      "bufferView": 0,
      "componentType": 5125,
      "count": 362337,
      "type": "SCALAR"
    },
    {
      "bufferView": 2,
      "byteOffset": 1572816,
      "componentType": 5126,
      "count": 437,
      "max": [
        0.5765088200569153,
        1.6030763387680054,
        3.1142332553863525
      ],
      "min": [
        -0.7345172166824341,
        -0.42944562435150146,
        -0.20506811141967773
      ],
      "type": "VEC3"
    },
    {
      "bufferView": 2,
      "byteOffset": 1578060,
      "componentType": 5126,
      "count": 437,
      "max": [
        0.9991533160209656,
        0.9978188872337341,
        0.9982358813285828
      ],
      "min": [
        -0.9993094801902771,
        -0.859491765499115,
        -0.9430685043334961
      ],
      "type": "VEC3"
    },
    {
      "bufferView": 1,
      "byteOffset": 524272,
      "componentType": 5126,
      "count": 437,
      "max": [
        0.993223249912262,
        0.9589598774909973
      ],
      "min": [
        0.02287568524479866,
        0.1467006951570511
      ],
      "type": "VEC2"
    },
    {
      "bufferView": 0,
      "byteOffset": 1449348,
      "componentType": 5125,
      "count": 1095,
      "type": "SCALAR"
    },
    {
      "bufferView": 2,
      "byteOffset": 1583304,
      "componentType": 5126,
      "count": 58193,
      "max": [
        3.9187142848968506,
        2.304391384124756,
        3.182145357131958
      ],
      "min": [
        -3.601477861404419,
        -3.1989073753356934,
        -3.187615394592285
      ],
      "type": "VEC3"
    },
    {
      "bufferView": 2,
      "byteOffset": 2281620,
      "componentType": 5126,
      "count": 58193,
      "max": [
        0.9999678730964661,
        0.9999985098838806,
        0.9999921321868896
      ],
      "min": [
        -0.9999825358390808,
        -0.9999582171440125,
        -0.9999791383743286
      ],
      "type": "VEC3"
    },
    {
      "bufferView": 1,
      "byteOffset": 527768,
      "componentType": 5126,
      "count": 58193,
      "max": [
        0.9965507984161377,
        0.9999908804893494
      ],
      "min": [
        9.418176887265872e-07,
        3.891065716743469e-05
      ],
      "type": "VEC2"
    },
    {
      "bufferView": 0,
      "byteOffset": 1453728,
      "componentType": 5125,
      "count": 314652,
      "type": "SCALAR"
    }
  ],
  "asset": {
    "extras": {
      "author": "matousekfoto (https://sketchfab.com/matousekfoto)",
      "license": "CC-BY-4.0 (http://creativecommons.org/licenses/by/4.0/)",
      "source": "https://sketchfab.com/3d-models/cut-ashtree-logs-stack-08993545b0574a5687c702751f7d7b18",
      "title": "Cut ashtree logs stack"
    },
    "generator": "Sketchfab-12.78.0",
    "version": "2.0"
  },
  "bufferViews": [
    {
      "buffer": 0,
      "byteLength": 2712336,
      "name": "floatBufferViews",
      "target": 34963
    },
    {
      "buffer": 0,
      "byteLength": 993312,
      "byteOffset": 2712336,
      "byteStride": 8,
      "name": "floatBufferViews",
      "target": 34962
    },
    {
      "buffer": 0,
      "byteLength": 2979936,
      "byteOffset": 3705648,
      "byteStride": 12,
      "name": "floatBufferViews",
      "target": 34962
    }
  ],
  "buffers": [
    {
      "byteLength": 6685584,
      "uri": "scene.bin"
    }
  ],
  "extensionsUsed": [
    "KHR_materials_unlit"
  ],
  "images": [
    {
      "uri": "textures/material0_baseColor.jpeg"
    },
    {
      "uri": "textures/material1_baseColor.jpeg"
    }
  ],
  "materials": [
    {
      "doubleSided": true,
      "extensions": {
        "KHR_materials_unlit": {}
      },
      "name": "material0",
      "pbrMetallicRoughness": {
        "baseColorTexture": {
          "index": 0
        },
        "metallicFactor": 0.0
      }
    },
    {
      "doubleSided": true,
      "extensions": {
        "KHR_materials_unlit": {}
      },
      "name": "material1",
      "pbrMetallicRoughness": {
        "baseColorTexture": {
          "index": 1
        },
        "metallicFactor": 0.0
      }
    }
  ],
  "meshes": [
    {
      "name": "Model_material0_0",
      "primitives": [
        {
          "attributes": {
            "NORMAL": 1,
            "POSITION": 0,
            "TEXCOORD_0": 2
          },
          "indices": 3,
          "material": 0,
          "mode": 4
        }
      ]
    },
    {
      "name": "Model_material0_0",
      "primitives": [
        {
          "attributes": {
            "NORMAL": 5,
            "POSITION": 4,
            "TEXCOORD_0": 6
          },
          "indices": 7,
          "material": 0,
          "mode": 4
        }
      ]
    },
    {
      "name": "Model_material1_0",
      "primitives": [
        {
          "attributes": {
            "NORMAL": 9,
            "POSITION": 8,
            "TEXCOORD_0": 10
          },
          "indices": 11,
          "material": 1,
          "mode": 4
        }
      ]
    }
  ],
  "nodes": [
    {
      "children": [
        1
      ],
      "matrix": [
        0.12165731455085194,
        0.0575903480688362,
        0.12718647301479802,
        0.0,
        -0.006492077677542729,
        0.17084791144377312,
        -0.07115050365177562,
        0.0,
        -0.1394664864383861,
        0.042283486706438306,
        0.11425742022036901,
        0.0,
        0.10039541125297546,
        0.42204055190086365,
        0.1132400557398797,
        1.0
      ],
      "name": "Sketchfab_model"
    },
    {
      "children": [
        2
      ],
      "matrix": [
        0.009999999776482582,
        0.0,
        0.0,
        0.0,
        0.0,
        0.0,
        0.009999999776482582,
        0.0,
        0.0,
        -0.009999999776482582,
        0.0,
        0.0,
        0.0,
        0.0,
        0.0,
        1.0
      ],
      "name": "ash-logs.fbx"
    },
    {
      "children": [
        3
      ],
      "name": "RootNode"
    },
    {
      "children": [
        4,
        5,
        6
      ],
      "matrix": [
        100.0,
        0.0,
        0.0,
        0.0,
        0.0,
        -1.629206793918314e-05,
        -99.99999999999868,
        0.0,
        0.0,
        99.99999999999868,
        -1.629206793918314e-05,
        0.0,
        0.0,
        0.0,
        0.0,
        1.0
      ],
      "name": "Model"
    },
    {
      "mesh": 0,
      "name": "Model_material0_0"
    },
    {
      "mesh": 1,
      "name": "Model_material0_0"
    },
    {
      "mesh": 2,
      "name": "Model_material1_0"
    }
  ],
  "samplers": [
    {
      "magFilter": 9729,
      "minFilter": 9987,
      "wrapS": 10497,
      "wrapT": 10497
    }
  ],
  "scene": 0,
  "scenes": [
    {
      "name": "Sketchfab_Scene",
      "nodes": [
        0
      ]
    }
  ],
  "textures": [
    {
      "sampler": 0,
      "source": 0
    },
    {
      "sampler": 0,
      "source": 1
    }
  ]
}
